<svg width="20" height="20" viewBox="0 0 20 20" fill="none" xmlns="http://www.w3.org/2000/svg">
<path d="M15.8332 3.33329H14.1665V2.49996C14.1665 2.27895 14.0787 2.06698 13.9224 1.9107C13.7661 1.75442 13.5542 1.66663 13.3332 1.66663C13.1122 1.66663 12.9002 1.75442 12.7439 1.9107C12.5876 2.06698 12.4998 2.27895 12.4998 2.49996V3.33329H7.49984V2.49996C7.49984 2.27895 7.41204 2.06698 7.25576 1.9107C7.09948 1.75442 6.88752 1.66663 6.6665 1.66663C6.44549 1.66663 6.23353 1.75442 6.07725 1.9107C5.92097 2.06698 5.83317 2.27895 5.83317 2.49996V3.33329H4.1665C3.50346 3.33329 2.86758 3.59668 2.39874 4.06553C1.9299 4.53437 1.6665 5.17025 1.6665 5.83329V15.8333C1.6665 16.4963 1.9299 17.1322 2.39874 17.6011C2.86758 18.0699 3.50346 18.3333 4.1665 18.3333H15.8332C16.4962 18.3333 17.1321 18.0699 17.6009 17.6011C18.0698 17.1322 18.3332 16.4963 18.3332 15.8333V5.83329C18.3332 5.17025 18.0698 4.53437 17.6009 4.06553C17.1321 3.59668 16.4962 3.33329 15.8332 3.33329ZM16.6665 15.8333C16.6665 16.0543 16.5787 16.2663 16.4224 16.4225C16.2661 16.5788 16.0542 16.6666 15.8332 16.6666H4.1665C3.94549 16.6666 3.73353 16.5788 3.57725 16.4225C3.42097 16.2663 3.33317 16.0543 3.33317 15.8333V9.99996H16.6665V15.8333ZM16.6665 8.33329H3.33317V5.83329C3.33317 5.61228 3.42097 5.40032 3.57725 5.24404C3.73353 5.08776 3.94549 4.99996 4.1665 4.99996H5.83317V5.83329C5.83317 6.05431 5.92097 6.26627 6.07725 6.42255C6.23353 6.57883 6.44549 6.66663 6.6665 6.66663C6.88752 6.66663 7.09948 6.57883 7.25576 6.42255C7.41204 6.26627 7.49984 6.05431 7.49984 5.83329V4.99996H12.4998V5.83329C12.4998 6.05431 12.5876 6.26627 12.7439 6.42255C12.9002 6.57883 13.1122 6.66663 13.3332 6.66663C13.5542 6.66663 13.7661 6.57883 13.9224 6.42255C14.0787 6.26627 14.1665 6.05431 14.1665 5.83329V4.99996H15.8332C16.0542 4.99996 16.2661 5.08776 16.4224 5.24404C16.5787 5.40032 16.6665 5.61228 16.6665 5.83329V8.33329Z" fill="#667085"/>
</svg>
