<svg width="20" height="20" viewBox="0 0 20 20" fill="none" xmlns="http://www.w3.org/2000/svg">
<g clip-path="url(#clip0_1005_3699)">
<path d="M12.5002 19.1667H10.8335V17.5H12.5002V19.1667ZM15.8335 17.5H14.1668V19.1667H15.8335V17.5ZM12.5002 14.1667H10.8335V15.8334H12.5002V14.1667ZM5.8335 17.5H4.16683V19.1667H5.8335V17.5ZM5.8335 14.1667H4.16683V15.8334H5.8335V14.1667ZM15.8335 14.1667H14.1668V15.8334H15.8335V14.1667ZM12.5002 10.8334H10.8335V12.5H12.5002V10.8334ZM15.8335 10.8334H14.1668V12.5H15.8335V10.8334ZM17.5002 7.50004C17.9422 7.50004 18.3661 7.67564 18.6787 7.9882C18.9912 8.30076 19.1668 8.72468 19.1668 9.16671V19.1667H17.5002V9.16671H9.16683V19.1667H7.50016V12.5H2.50016V19.1667H0.833496V12.5C0.833496 12.058 1.00909 11.6341 1.32165 11.3215C1.63421 11.009 2.05814 10.8334 2.50016 10.8334H7.50016V9.16671C7.50016 8.72468 7.67576 8.30076 7.98832 7.9882C8.30088 7.67564 8.7248 7.50004 9.16683 7.50004V5.83337C9.16683 5.39135 9.34243 4.96742 9.65499 4.65486C9.96755 4.3423 10.3915 4.16671 10.8335 4.16671H12.5002V0.833374H14.1668V4.16671H15.8335C16.2755 4.16671 16.6994 4.3423 17.012 4.65486C17.3246 4.96742 17.5002 5.39135 17.5002 5.83337V7.50004ZM15.8335 7.50004V5.83337H10.8335V7.50004H15.8335Z" fill="#667085"/>
</g>
<defs>
<clipPath id="clip0_1005_3699">
<rect width="20" height="20" fill="white"/>
</clipPath>
</defs>
</svg>
