<svg width="20" height="20" viewBox="0 0 20 20" fill="none" xmlns="http://www.w3.org/2000/svg">
<g clip-path="url(#clip0_1005_6295)">
<path fill-rule="evenodd" clip-rule="evenodd" d="M9.62736 0.921313C9.86197 0.80401 10.1381 0.80401 10.3727 0.921313L18.7061 5.08798C18.9884 5.22914 19.1667 5.51769 19.1667 5.83334C19.1667 6.14898 18.9884 6.43753 18.7061 6.57869L10.3727 10.7454C10.1381 10.8627 9.86197 10.8627 9.62736 10.7454L1.29403 6.57869C1.01171 6.43753 0.833374 6.14898 0.833374 5.83334C0.833374 5.51769 1.01171 5.22914 1.29403 5.08798L9.62736 0.921313ZM3.5301 5.83334L10 9.06831L16.47 5.83334L10 2.59836L3.5301 5.83334Z" fill="#667085"/>
<path fill-rule="evenodd" clip-rule="evenodd" d="M0.92129 13.794C1.12711 13.3823 1.62767 13.2155 2.03932 13.4213L9.99998 17.4016L17.9606 13.4213C18.3723 13.2155 18.8728 13.3823 19.0787 13.794C19.2845 14.2056 19.1176 14.7062 18.706 14.912L10.3727 19.0787C10.1381 19.196 9.86191 19.196 9.6273 19.0787L1.29397 14.912C0.882319 14.7062 0.715465 14.2056 0.92129 13.794Z" fill="#667085"/>
<path fill-rule="evenodd" clip-rule="evenodd" d="M0.92129 9.62733C1.12711 9.21568 1.62767 9.04882 2.03932 9.25465L9.99998 13.235L17.9606 9.25465C18.3723 9.04882 18.8728 9.21568 19.0787 9.62733C19.2845 10.039 19.1176 10.5395 18.706 10.7454L10.3727 14.912C10.1381 15.0293 9.86191 15.0293 9.6273 14.912L1.29397 10.7454C0.882319 10.5395 0.715465 10.039 0.92129 9.62733Z" fill="#667085"/>
</g>
<defs>
<clipPath id="clip0_1005_6295">
<rect width="20" height="20" fill="white"/>
</clipPath>
</defs>
</svg>
