<svg width="56" height="56" viewBox="0 0 56 56" fill="none" xmlns="http://www.w3.org/2000/svg">
<circle cx="28" cy="28" r="24" fill="#D1E9FF" stroke="#EFF8FF" stroke-width="8"/>
<path fill-rule="evenodd" clip-rule="evenodd" d="M23.5 27C21.0147 27 19 29.0147 19 31.5C19 33.9853 21.0147 36 23.5 36C25.9853 36 28 33.9853 28 31.5C28 29.0147 25.9853 27 23.5 27ZM17 31.5C17 27.9101 19.9101 25 23.5 25C27.0899 25 30 27.9101 30 31.5C30 35.0899 27.0899 38 23.5 38C19.9101 38 17 35.0899 17 31.5Z" fill="#1570EF"/>
<path fill-rule="evenodd" clip-rule="evenodd" d="M37.707 17.2929C38.0975 17.6834 38.0975 18.3166 37.707 18.7071L28.107 28.3071C27.7165 28.6976 27.0833 28.6976 26.6928 28.3071C26.3023 27.9166 26.3023 27.2834 26.6928 26.8929L36.2928 17.2929C36.6833 16.9024 37.3165 16.9024 37.707 17.2929Z" fill="#1570EF"/>
<path fill-rule="evenodd" clip-rule="evenodd" d="M34.2929 19.2929C34.6834 18.9024 35.3166 18.9024 35.7071 19.2929L38.7071 22.2929C39.0976 22.6834 39.0976 23.3166 38.7071 23.7071L35.2071 27.2071C34.8166 27.5976 34.1834 27.5976 33.7929 27.2071L30.7929 24.2071C30.4024 23.8166 30.4024 23.1834 30.7929 22.7929C31.1834 22.4024 31.8166 22.4024 32.2071 22.7929L34.5 25.0858L36.5858 23L34.2929 20.7071C33.9024 20.3166 33.9024 19.6834 34.2929 19.2929Z" fill="#1570EF"/>
</svg>
