<svg width="24" height="24" viewBox="0 0 24 24" fill="none" xmlns="http://www.w3.org/2000/svg">
<path d="M2.436 18.853C2 18.357 2 17.505 2 15.803V6.40898C2 5.20298 2 4.59998 2.315 4.14598C2.629 3.69198 3.179 3.50098 4.279 3.11998L5.573 2.67098C6.274 2.42798 6.813 2.24098 7.266 2.12098C7.562 2.04198 7.833 2.27398 7.833 2.57998V17.73C7.82954 17.8514 7.78597 17.9683 7.70908 18.0624C7.6322 18.1564 7.52633 18.2224 7.408 18.25C7.019 18.349 6.551 18.511 5.91 18.733C4.357 19.272 3.58 19.541 2.99 19.268C2.77838 19.1699 2.58966 19.0285 2.436 18.853ZM12.62 20.519L11.084 19.454C10.529 19.069 10.121 18.786 9.774 18.585C9.69224 18.5393 9.6239 18.473 9.57581 18.3926C9.52773 18.3122 9.50159 18.2206 9.5 18.127V3.07998C9.5 2.70998 9.884 2.47798 10.196 2.67798C10.531 2.89198 10.915 3.15798 11.38 3.47998L12.916 4.54498C13.471 4.92998 13.879 5.21298 14.226 5.41398C14.3078 5.45966 14.3761 5.526 14.4242 5.60637C14.4723 5.68675 14.4984 5.77833 14.5 5.87198V20.92C14.5 21.291 14.116 21.522 13.804 21.323C13.469 21.108 13.085 20.842 12.62 20.519ZM19.72 20.88L18.427 21.328C17.726 21.571 17.187 21.758 16.734 21.878C16.438 21.957 16.167 21.725 16.167 21.419V6.26898C16.1705 6.14753 16.214 6.03065 16.2909 5.93658C16.3678 5.84251 16.4737 5.77654 16.592 5.74898C16.981 5.64998 17.449 5.48898 18.09 5.26598C19.643 4.72698 20.42 4.45798 21.01 4.73098C21.2216 4.8291 21.4103 4.97047 21.564 5.14598C22 5.64198 22 6.49398 22 8.19598V17.59C22 18.796 22 19.4 21.685 19.853C21.371 20.307 20.821 20.498 19.721 20.879L19.72 20.88Z" fill="#1570EF"/>
</svg>
