<svg width="20" height="20" viewBox="0 0 20 20" fill="none" xmlns="http://www.w3.org/2000/svg">
<path fill-rule="evenodd" clip-rule="evenodd" d="M4.55388 12.8869C5.33529 12.1055 6.39509 11.6665 7.50016 11.6665H12.5002C13.6052 11.6665 14.665 12.1055 15.4464 12.8869C16.2278 13.6683 16.6668 14.7281 16.6668 15.8332V17.4998C16.6668 17.9601 16.2937 18.3332 15.8335 18.3332C15.3733 18.3332 15.0002 17.9601 15.0002 17.4998V15.8332C15.0002 15.1701 14.7368 14.5342 14.2679 14.0654C13.7991 13.5966 13.1632 13.3332 12.5002 13.3332H7.50016C6.83712 13.3332 6.20124 13.5966 5.7324 14.0654C5.26355 14.5342 5.00016 15.1701 5.00016 15.8332V17.4998C5.00016 17.9601 4.62707 18.3332 4.16683 18.3332C3.70659 18.3332 3.3335 17.9601 3.3335 17.4998V15.8332C3.3335 14.7281 3.77248 13.6683 4.55388 12.8869Z" fill="#667085"/>
<path fill-rule="evenodd" clip-rule="evenodd" d="M10.0002 3.33317C8.61945 3.33317 7.50016 4.45246 7.50016 5.83317C7.50016 7.21388 8.61945 8.33317 10.0002 8.33317C11.3809 8.33317 12.5002 7.21388 12.5002 5.83317C12.5002 4.45246 11.3809 3.33317 10.0002 3.33317ZM5.8335 5.83317C5.8335 3.53198 7.69898 1.6665 10.0002 1.6665C12.3013 1.6665 14.1668 3.53198 14.1668 5.83317C14.1668 8.13436 12.3013 9.99984 10.0002 9.99984C7.69898 9.99984 5.8335 8.13436 5.8335 5.83317Z" fill="#667085"/>
</svg>
